<?xml version="1.0" standalone="no"?><!DOCTYPE svg PUBLIC "-//W3C//DTD SVG 1.1//EN" 
"http://www.w3.org/Graphics/SVG/1.1/DTD/svg11.dtd">
<svg  xmlns="http://www.w3.org/2000/svg" xmlns:xlink="http://www.w3.org/1999/xlink">
	<defs>
		<symbol id="icon_horn" viewBox="0 0 24 24">		
          <title>horn</title><!-- 喇叭 -->
          <path d="m57.3799989 295.274562c.2400009.244061.4800018.732184.8400011 1.5864.4800018 1.09826.840001 2.56264.840001 4.027011 0 1.464353-.3600013 2.806702-.840001 4.02701-.3599993.732185-.7199985 1.220308-.9599995 1.464371-.2399988.244062-.7200006.366092-1.0799998 0-.2400009-.366092-.2400009-.854217 0-1.220308.1200004-.122032.3599992-.488123.6000001-1.098278.4799997-.976228.7200007-2.074514.7200007-3.294822 0-1.220298-.240001-2.440606-.6000002-3.172792-.2400009-.610154-.4800001-.976246-.6000002-1.098277-.3599992-.366092-.3599992-.854217 0-1.220308.2399988-.366092.839999-.366092 1.0799999 0zm3.2572663-3.104465c.4799997.3661 1.0799998 1.220317 1.68 2.318571 1.0799998 1.952501 1.68 4.149042 1.68 6.589667 0 2.440626-.6000002 4.637167-1.68 6.83373-.6000002 1.098285-1.2000003 1.952502-1.68 2.318594-.3599993.244061-.839999.244061-1.0799999-.122031-.2399992-.366092-.2399992-.976246.12-1.220308 0-.122032.1199984-.244061.3599993-.488123.3599992-.366094.6000001-.854217.9599994-1.464371.840001-1.708438 1.4400012-3.538885 1.4400012-5.735448s-.6000002-4.149048-1.4400012-5.735448c-.2399988-.610155-.6000002-1.09828-.9599994-1.464371-.1199984-.244061-.2399992-.366092-.3599993-.488123-.3600009-.366092-.3600009-.854217-.12-1.220309.2399988-.366093.7200006-.366093 1.0799999-.12203zm-18.6372652 1.829903h5l6-5v24l-6-5h-5c-1.1045695 0-2-.895431-2-2v-10c0-1.104569.8954305-2 2-2z"  fill-rule="evenodd" transform="translate(-40 -289)"/>
        </symbol>

        <symbol id="icon_live2" viewBox="0 0 24 26">		
          <title>live2</title><!-- 直播 -->
          <g stroke="none" stroke-width="1" fill="none" fill-rule="evenodd">
	        <g  transform="translate(-16.000000, -415.000000)" fill="#AC7E08" fill-rule="nonzero">
	            <path d="M39.4048914,424.493442 C39.0207061,424.109796 38.5013693,423.894573 37.9601345,423.894709 L20.9625822,423.894709 L37.3651611,419.618343 C37.7901337,419.532809 38.1301118,419.27621 38.3849455,418.848543 C38.5549345,418.50641 38.639929,418.078744 38.5549345,417.651229 L38.2149564,416.197315 C38.0449674,415.513049 37.3650112,415 36.6002104,415 C36.4302214,415 36.3452269,415 36.1752378,415.085533 L17.2231172,420.046006 C16.7981446,420.131539 16.4581665,420.388139 16.2033328,420.815805 C16.0333438,421.157938 15.9483492,421.585604 16.0333438,422.01312 L16.4583164,423.467034 C16.5433109,423.8947 16.7982944,424.236833 17.223267,424.4079 C16.7982944,424.750033 16.5433109,425.348765 16.5433109,425.947347 L16.5433109,439.032886 C16.5433109,440.144668 17.4782506,441 18.498035,441 L38.0452759,441 C39.1500548,441 40,440.144668 40,439.032886 L40,425.861838 C39.9998496,425.348638 39.8298605,424.835589 39.4048885,424.493456 L39.4048914,424.493442 Z M17.6481103,425.861823 L17.6481103,425.861824 C17.6463612,425.438436 17.9860052,425.093784 18.4067293,425.092025 C18.4088397,425.092016 18.4109502,425.092016 18.4130606,425.092025 L24.2772359,425.092018 L21.7274003,427.657871 L17.6481036,427.657871 L17.6481158,425.861824 L17.6481103,425.861823 Z M18.1579276,423.38151 L18.0729331,423.38151 C17.902944,423.38151 17.732955,423.295976 17.6479605,423.039377 L17.2229879,421.585462 L17.2229879,421.499929 C17.2229879,421.414396 17.2229879,421.328863 17.3079824,421.328863 C17.3929769,421.243329 17.4779714,421.157796 17.6479605,421.157796 L36.5152276,416.282863 L36.6852167,416.282863 C36.8552057,416.282863 37.0251947,416.368396 37.1101892,416.624996 L37.5351618,418.07891 L37.5351618,418.164443 C37.5351618,418.249976 37.5351618,418.33551 37.4501673,418.33551 C37.3651728,418.421043 37.2801783,418.506576 37.1101892,418.506576 L18.1579217,423.38151 L18.1579276,423.38151 Z M23.4271294,427.657876 L25.9768151,425.092029 L32.2659629,425.092029 L29.7162772,427.657876 L23.4271294,427.657876 Z M38.8099453,428.855341 L38.8099386,438.947513 L38.8099386,438.947511 C38.8116878,439.370899 38.4720437,439.715551 38.0513196,439.717313 C38.0492092,439.717322 38.0470987,439.717322 38.0449883,439.717313 L18.4978942,439.717313 C18.0771732,439.719073 17.7346918,439.377274 17.7329436,438.953886 C17.7329348,438.951762 17.7329348,438.949638 17.7329436,438.947514 L17.732937,428.855341 L38.8099453,428.855341 Z M31.3310203,427.657876 L33.880706,425.092029 L38.0451378,425.092029 C38.1301323,425.092029 38.3001213,425.092029 38.3851158,425.177563 C38.6400994,425.348629 38.8100884,425.605229 38.8100884,425.861829 L38.8100884,427.572343 L31.3311701,427.572343 L31.3311701,427.657876 L31.3310203,427.657876 Z" ></path>
	        </g>
	    </g>
        </symbol>

        <symbol id="icon_handtop" viewBox="0 0 24 28">
        	<title>icon_handtop</title><!-- 指示 -->
        	<path d="M19.935 11.348c-.304-1.08-1.342-1.841-2.541-1.863a2.999 2.999 0 0 0-1.48.391c-.413-1.303-1.881-2.048-3.28-1.664a2.741 2.741 0 0 0-.642.267V2.646C12.048 1.237 10.867.053 9.354.001 7.784.02 6.978 1.205 7 2.646V16l-2.13-1.54c-1.092-.972-2.811-.972-3.902 0-1.2 1.041-1.297 2.78-.22 3.932l7.742 7.454c.155.145.33.27.52.373 1.82 1.344 4.134 1.967 6.443 1.733 7.823 0 8.543-4.063 8.543-9.057v-5.292c.078-1.387-1.067-2.57-2.557-2.643a2.529 2.529 0 0 0-1.504.388z" fill-rule="nonzero"/>
        </symbol>

        <symbol id="icon_tick" viewBox="0 0 32 32">
          <title>icon_tick</title><!-- 对勾美图 fill="#EB6759" -->
          <path d="M9.143 14.629l4.343 8.685S20.57 5.714 31.543 0c-.229 4.114-1.372 7.771.457 12.343C27.2 13.486 17.143 26.057 13.943 32 9.37 26.057 3.886 21.714 0 20.343l9.143-5.714z"  fill-rule="nonzero"/>
        </symbol>

        <symbol id="icon_delimg" viewBox="0 0 24 24"><!-- 叉美图 fill="red" -->
            <path d="M3.656 2L2.009 3.38c2.93 2.18 5.658 4.68 8.055 7.18-3.67 3.69-6.55 7.32-8.064 8.78l3.129 2.61c1.113-2.29 3.531-5.76 6.771-9.4 3.239 3.66 5.667 7.15 6.78 9.45 0 0 3.049-3.23 3.32-2.73-1.173-1.32-4.042-5.16-7.893-9.09 2.206-2.26 4.683-4.5 7.33-6.47l-.721-1.34c-3 1.49-5.857 3.7-8.425 6.05C9.702 5.97 6.774 3.64 3.654 2h.002z" fill-rule="nonzero"/></symbol>

        <symbol id="icon_sedred" viewBox="0 0 24 18"><!-- 对勾常规 fill="#EB6759"-->
            <path d="M21.564.417L7.708 14.49l-5.265-5.35a1.417 1.417 0 0 0-2.024 0 1.469 1.469 0 0 0 0 2.054l6.28 6.374c.28.283.648.431 1.022.431a1.38 1.38 0 0 0 1.009-.425L23.58 2.497a1.469 1.469 0 0 0 0-2.054 1.399 1.399 0 0 0-2.017-.026z" fill-rule="nonzero"/>
        </symbol>

        <symbol id="icon_delx" viewBox="0 0 16 16"><!-- 叉号 x fill="#8b8b8b" -->
          <path d="M14.646 15.767L7.999 9.12l-6.647 6.646a.792.792 0 1 1-1.12-1.12L6.88 8 .232 1.353A.792.792 0 1 1 1.353.233L8 6.879 14.647.233a.792.792 0 1 1 1.12 1.119L9.12 7.999l6.647 6.647c.31.31.31.812 0 1.12a.791.791 0 0 1-1.121.001z" fill-rule="evenodd"/>
        </symbol>

        <symbol id="def_prize" viewBox="0 0 58 56"><!-- 首页 开奖大厅图标-->
          <path d="M51.814 6.884h-5.712V5.256A3.293 3.293 0 0 0 42.846 2H15.233a3.293 3.293 0 0 0-3.256 3.256v1.628h-5.72A3.293 3.293 0 0 0 3 10.14v6.537a8.93 8.93 0 0 0 8.905 8.905h.074a17.029 17.029 0 0 0 14.543 15.21v6.668h-5.723a3.293 3.293 0 0 0-3.256 3.256v2.45a.823.823 0 0 0 .807.834h21.073a.823.823 0 0 0 .816-.816v-2.45a3.293 3.293 0 0 0-3.256-3.255h-5.721v-6.687a17.099 17.099 0 0 0 14.542-15.21h.075a8.93 8.93 0 0 0 8.905-8.905v-6.53c.298-1.86-1.189-3.256-2.968-3.256l-.002-.007zm-39.77 13.721a4.07 4.07 0 0 1-4.08-4.076v-4.824h4.078l.003 8.9zm23.3-1.558l-2.524 2.598.593 3.721a.881.881 0 0 1-.298.816 1.054 1.054 0 0 1-.444.15.556.556 0 0 1-.372-.075l-3.116-1.707-3.117 1.707a.788.788 0 0 1-.89-.075.823.823 0 0 1-.298-.816l.593-3.72-2.521-2.594a.837.837 0 0 1-.233-.816c.086-.3.356-.51.668-.519l3.488-.519 1.558-3.34a.842.842 0 0 1 1.484 0l1.558 3.34 3.489.519c.292.058.54.25.667.519.016.3-.092.595-.297.816l.011-.005zm14.84-2.449a4.07 4.07 0 0 1-4.082 4.082v-8.9h4.082v4.818z" fill="#EC6841" fill-rule="nonzero"/>
        </symbol>

        <symbol id="hemai_unbg" viewBox="0 0 52 44"><!-- 首页 合买 攻略-->
          <g transform="translate(2 1.719)" fill="none" fill-rule="evenodd"><path d="M16 14.281c1.944 0 4 1.416 4 3.36v19.36c0 1.944-1.576 3.28-3.52 3.28H3c-1.944 0-3-1.056-3-3v-20c0-1.944 1.056-3 3-3h13z" fill-opacity=".6" fill="#EC6841" fill-rule="nonzero"/><path d="M8 .281v40h29.92c1.944 0 3.08-1.056 3.08-3v-34c0-1.944-1.136-3-3.08-3H8z" fill="#EC6841" fill-rule="nonzero"/><circle stroke="#FFF" fill="#EBB231" cx="41" cy="33" r="8"/><path d="M43.028 28.097L37.09 34.34c-.236.248.036.642.352.51l3.598-1.506a.317.317 0 0 1 .413.166l1.515 3.516c.136.316.607.218.607-.126v-8.584a.317.317 0 0 0-.546-.218zM13 .281h5l.28 13.319-2.64-1.76L13 13.6z" fill="#FFF" fill-rule="nonzero"/></g>
        </symbol>

        <symbol id="icon_downsvg" viewBox="0 0 24 24"><!-- 下载 fill="#C1C1C1" -->
          <path d="M4 12.006s-.549-1.432 0-1.998c.3-.312.699-.312 1 0l6 5.996V.013h2v15.991l6-5.996c.3-.312.699-.312 1 0 .301.31.301 1.687 0 1.998l-6.95 6.724a.763.763 0 0 1-.245.17h-.002a.768.768 0 0 1-.116.038l-.031.01c-.1.02-1.205.02-1.306 0l-.03-.01c-.04-.01.92-.021.883-.038h-1a.761.761 0 0 1-.247-.17L4 12.006zm15-9.994v-2s1.217-.028 3 0c1.448.024 2 2 2 2v18.99C24 22.76 22.703 24 21 24H3c-1.703 0-3-1.24-3-2.998V2.012s.206-2.026 2-2c.05.05 3 0 3 0s-.091 1.714 0 2c.053.167-2.485.033-3 0v18.99c0 .882.145 1 1 1h18c.855 0 1-.118 1-1V2.012h-3z" fill-rule="evenodd"/>
       </symbol>

       <symbol id="icon_codesvg" viewBox="0 0 24 24"><!-- 二维码 x fill="#C1C1C1" -->
          <path d="M1.997 9A1.998 1.998 0 0 1 0 7.003V1.997C0 .894.896 0 1.997 0h5.006C8.106 0 9 .896 9 1.997v5.006A1.998 1.998 0 0 1 7.003 9H1.997zm0 15A1.998 1.998 0 0 1 0 22.003v-5.006C0 15.894.896 15 1.997 15h5.006C8.106 15 9 15.896 9 16.997v5.006A1.998 1.998 0 0 1 7.003 24H1.997zM2 22h5v-5H2v5zM2 2v5h5V2H2zm14.997 7A1.998 1.998 0 0 1 15 7.003V1.997C15 .894 15.896 0 16.997 0h5.006C23.106 0 24 .896 24 1.997v5.006A1.998 1.998 0 0 1 22.003 9h-5.006zM17 2v5h5V2h-5zM.97 12.955a.972.972 0 0 1-.97-.978c0-.54.437-.977.97-.977h22.06c.535 0 .97.434.97.977 0 .54-.437.978-.97.978H.97zM12 9c-.552 0-1-.446-1-.998V.998C11 .447 11.444 0 12 0c.552 0 1 .446 1 .998v7.004c0 .551-.444.998-1 .998zM12 24c-.552 0-1-.446-1-.998v-7.004c0-.551.444-.998 1-.998.552 0 1 .446 1 .998v7.004c0 .551-.444.998-1 .998zM23.004 24a.976.976 0 0 1-.977-.98v-7.04c0-.541.434-.98.977-.98.54 0 .978.434.978.98v7.04c0 .541-.434.98-.978.98zM19.045 24a1.01 1.01 0 0 1-1.006-.997l-.033-6.006A.99.99 0 0 1 19 16c.552 0 1 .453 1 .997v6.006c0 .55-.453.997-1 .997h.045zM16 24c-.552 0-1-.438-1-1.003v-4.994A.999.999 0 0 1 16 17c.552 0 1 .438 1 1.003v4.994A.999.999 0 0 1 16 24z" fill-rule="evenodd" />
        </symbol>

        <symbol id="icon_telsvg" viewBox="0 0 40 40"><!-- 联系 x fill="#555" -->
            <path d="M5.414 1.114l-.05.042a2.214 2.214 0 0 0-.056.037l-.126.093c-.12.096-.225.21-.31.34l-.026.042-3.365 3.368c-4.097 4.097.621 13.655 10.253 23.283l.69.683c9.321 9.095 18.422 13.45 22.437 9.588l3.567-3.568c2.028-1.93 2.109-5.176.156-7.228l-.415-.418-.115-.102-5.328-4.237c-2.044-1.554-4.987-1.348-6.82.539l-1.487 1.49-.143-.091a29.672 29.672 0 0 1-9.07-9.075l-.122-.196 1.414-1.59-.024.024a5.18 5.18 0 0 0 .354-7.055l-4.051-5.095a5.269 5.269 0 0 0-7.363-.874zm5.3 2.517l4.193 5.275c.642.884.657 2.038.087 2.908l-.084.116-3.08 3.464.482.825a32.31 32.31 0 0 0 11.644 11.65l.878.512 2.952-2.954.145-.139a2.54 2.54 0 0 1 3.327-.048l5.093 4.05.323.322a2.492 2.492 0 0 1-.088 3.522l-3.571 3.572c-2.521 2.424-10.858-1.693-19.417-10.252l-.352-.354C4.87 17.612.861 9.387 3.348 6.902L7.096 3.15l-.06.044a2.632 2.632 0 0 1 3.677.436v.001z" fill-rule="nonzero"/></symbol>
        <!-- 分享 箭头款 fill="#C1C1C1" -->
        <symbol id="icon_sharesvg" viewBox="0 0 40 40">
          <path d="M19.885 3.885L17 1l2-1 5 5-5 6-2-1 3.338-4.172C16.874 5.878 14.098 7.06 12 9c-2.41 2.229-4 5.304-4 10H6c0-4.696 1.455-8.732 4-11 2.377-2.118 5.56-3.905 9.885-4.115zM21 24H2c-1.174 0-2-.602-2-2V2.753C0 1.366.811 1 2 1h9v2H3c-.73 0-1 .454-1 1v17c0 .544.233 1 1 1h18c.235 0 0 .542 0 0v-8h2v8c0 1.992-2.197 2-3 2h1z" fill-rule="evenodd"/>
        </symbol>

        <symbol id="icon_sharesvgbd" viewBox="0 0 40 40">
          <g stroke="#555" stroke-width="3" fill="none" fill-rule="evenodd" stroke-linecap="round"><path d="M19.053 2H6a4 4 0 0 0-4 4v28a4 4 0 0 0 4 4h28a4 4 0 0 0 4-4V22.842M11 32c.667-16.667 9.667-24.333 27-23"/><path d="M31 2l7 7-7 7"/></g>
        </symbol>

        <symbol id="icon_sharesvg2" viewBox="0 0 17 16"><!-- 分享 点款 fill="#7A412B" -->
          <path d="M13.663 10.3c-1.063 0-1.933.57-2.337 1.453L6.187 9.568c.3-.465.465-1.034.465-1.647 0-.255-.03-.51-.09-.75l3.28-2.545c.435.33.99.524 1.604.524 1.483 0 2.591-1.108 2.591-2.575S12.928 0 11.446 0C9.962 0 8.869 1.108 8.869 2.575c0 .375.075.72.195 1.018L6.037 5.914c-.599-.898-1.588-1.527-2.711-1.527A3.317 3.317 0 0 0 0 7.71a3.317 3.317 0 0 0 3.326 3.324c.689 0 1.333-.18 1.857-.509l5.903 2.515c.075 1.392 1.154 2.425 2.577 2.425 1.483 0 2.577-1.107 2.577-2.575 0-1.467-1.11-2.59-2.577-2.59z" fill-rule="nonzero"/></symbol>

        <symbol id="icon_userprom" viewBox="0 0 36 36"><!-- 推荐 x fill="#019AFE" -->
          <g fill-rule="nonzero" fill="none"><path d="M2.004 16.691c0-1.15.972-2.078 2.17-2.078h4.338l-.017 18.05H4.173c-1.197 0-2.169-.928-2.169-2.044V16.69z"/><path d="M2.004 16.691c0-1.15.972-2.078 2.17-2.078h4.338l-.017 18.05H4.173c-1.197 0-2.169-.928-2.169-2.044V16.69zm2.17 13.86H6.36l.017-13.808H4.173c-.035 0-.035 0-.035-.034v13.893c0-.052.018-.052.035-.052zm10.794-17.827c.642-.652 1.457-1.94 2.464-3.864.295-.773.451-1.477.451-2.06 0-2.061 1.198-3.796 3.003-3.796 1.561.017 2.829 1.254 3.175 2.92 0 0 .295 1.94.295 2.954a17.212 17.212 0 0 1-.71 4.602l6.437.035c.99 0 2.118.515 2.725 1.648.382.704.504 2.576.451 2.731L30.847 30.19c-.312 1.134-.815 1.529-1.336 1.906-.555.395-1.77.584-1.77.584H11.132l.035-18.083c1.146-.19 2.863-.894 3.8-1.873zm-1.7 17.826h14.3c.155-.034.364-.068.554-.137.122-.034.174-.069.14-.034.346-.258.399-.327.52-.688l2.36-12.038v-.051a29.787 29.787 0 0 1-.052-.619c-.052-.446-.139-.807-.156-.824-.19-.344-.52-.533-.833-.533l-6.456-.034h-2.88l.815-2.714c.4-1.288.607-2.644.625-4.035 0-.172-.017-.515-.07-.927-.017-.207-.052-.412-.07-.636-.051-.43-.103-.807-.138-1.03-.14-.67-.625-1.117-1.076-1.117-.382 0-.833.601-.833 1.667 0 .841-.209 1.786-.59 2.799l-.105.24c-1.093 2.096-1.995 3.504-2.811 4.346-.816.841-2.013 1.545-3.228 2.009l-.017 14.356z" fill="#019AFE"/></g></symbol>

        <symbol id="icon_userhm" viewBox="0 0 36 36"><!-- 参与的合买 x fill="#FFA20A" -->
          <path d="M9.98 19.15v-1.144c0-.142-.145-.142-.145-.284l-.283-.284a3.325 3.325 0 0 1-1.851-3c0-1.57.993-2.847 2.416-3.283.565-.141.994-.709.858-1.286-.283-.558-.858-.983-1.57-.841-2.426.567-4.131 2.847-4.131 5.42 0 1.43.565 2.706 1.423 3.71C3.85 19.576 2 22.576 2 26v1.854C2 28.422 2.429 29 3.14 29c.565 0 1.14-.426 1.14-1.145v-1.713c0-3.14 1.998-5.705 4.843-6.414.43-.01.712-.294.858-.577zm20.252-.996c.722-.863 1.158-2.169 1.158-3.618 0-2.601-1.731-4.77-4.046-5.5-.573-.144-1.157.144-1.306.864-.149.575.149 1.161.722 1.449 1.444.288 2.453 1.593 2.453 3.187 0 1.305-.722 2.6-1.88 3.043a.305.305 0 0 0-.286.288c0 .144-.149.144-.149.287v.864c.149.432.435.576.87.576 2.889.72 4.917 3.474 4.917 6.507v1.737c0 .576.436 1.162 1.158 1.162.573 0 1.157-.432 1.157-1.162v-1.737c0-3.454-1.88-6.497-4.768-7.947zm-7.84-.638a6.546 6.546 0 0 0 2.55-5.164C24.942 8.79 22.331 6 19.01 6c-3.33 0-5.931 2.79-5.931 6.352 0 2.165.966 4.03 2.467 5.174C11.156 19.067 8 23.441 8 28.584v1.375C8 30.53 8.463 31 9.028 31h19.944c.565 0 1.028-.469 1.028-1.041v-1.375c0-5.07-3.249-9.506-7.607-11.068zM15 12.5c0-2.244 1.761-4 4-4s4 1.756 4 4c0 2.166-1.836 4-4 4-2.25 0-4-1.756-4-4zM10 29v-.336C10 23.332 14.043 19 19.005 19 23.885 19 28 23.427 28 28.664V29H10z" fill-rule="nonzero"/></symbol>

          <symbol id="icon_usernotice" viewBox="0 0 40 40"><!-- 店主公告fill: #C1C1C1 -->
            <g fill-rule="nonzero"><path d="M19.477 0c1.029 0 1.86.796 1.86 1.78v1.78c0 .981-.831 0-1.86 0-1.027 0-1.86.981-1.86 0V1.78c0-.984.833-1.78 1.86-1.78zm0 2.67v.89-.89zM12.5 32.478v-1.334h13.954v1.334c0 3.686-3.124 6.674-6.977 6.674-3.851 0-6.977-2.988-6.977-6.674zm6.977 4.004c1.823 0 3.373-1.113 3.948-2.668h-7.896c.577 1.555 2.126 2.668 3.948 2.668z"/><path d="M37.97 27.482c1.343 1.772.908 4.231-.972 5.496a4.37 4.37 0 0 1-2.435.733H5.436c-2.311 0-4.186-1.764-4.186-3.938 0-.823.272-1.623.78-2.289a15.48 15.48 0 0 1 4.728-4.11v-8.418C6.758 8.076 12.687 2.5 20 2.5c7.313 0 13.241 5.576 13.241 12.456v8.418a15.48 15.48 0 0 1 4.73 4.108zm-7.566-12.526C30.404 9.55 25.747 5.17 20 5.17c-5.745 0-10.404 4.381-10.404 9.786v9.93l-1.377.777a12.698 12.698 0 0 0-3.88 3.371 1.218 1.218 0 0 0-.252.739c0 .701.606 1.268 1.35 1.268h29.126c.28.001.554-.081.785-.236a1.223 1.223 0 0 0 .314-1.771 12.698 12.698 0 0 0-3.881-3.371l-1.377-.778v-9.93z"/></g></symbol>

        <symbol id="icon_goarrw" viewBox="0 0 48 20"><!-- goicon hui#BBB,blue #019AFE" -->
          <path d="M30 8V2.49A2 2 0 0 1 33.011.765L45.665 8.18a2 2 0 0 1 .015 3.442L33.027 19.19A2 2 0 0 1 30 17.473V12H4a2 2 0 1 1 0-4h26z" fill-rule="nonzero"/></symbol>

        <symbol id="icon_loading" viewBox="0 0 80 80"><!-- 加载宏icon_loading #555" -->
          <path d="M43.001 20C36.936 20 32 15.514 32 10c0-5.512 4.936-10 11.001-10C49.067 0 54 4.486 54 10s-4.933 10-10.999 10zm-25 10C12.487 30 8 25.515 8 20s4.487-10 10-10c5.521.007 9.994 4.48 10 10 0 5.512-4.486 10-10 10zM8 50A8.007 8.007 0 0 1 0 41.998 8.007 8.007 0 0 1 8 34a8.007 8.007 0 0 1 8 7.998 8.007 8.007 0 0 1-7.999 8V50zm12 22c-4.417-.004-7.997-3.136-8.001-7 .006-3.863 3.583-6.994 8-7 4.415.005 7.994 3.136 8 7 0 3.858-3.588 7-8 7zm23 8c-3.865-.003-6.998-2.688-7.001-6 0-3.31 3.141-6 7-6 3.865.004 6.997 2.688 7 6 0 3.31-3.14 6-7 6zM65 70a5.006 5.006 0 0 1-5-5 5.006 5.006 0 0 1 5-5 5.006 5.006 0 0 1 5 5 5.006 5.006 0 0 1-5 5zm11-24a4.005 4.005 0 0 1-4-4 4.005 4.005 0 0 1 4-4 4.006 4.006 0 0 1 4 4 4.007 4.007 0 0 1-4 4zM62 19a3 3 0 1 0 6 0 3 3 0 0 0-6 0z" fill-rule="nonzero"/></symbol>

        <symbol id="icon_pointtop" viewBox="0 0 160 160"><!-- 指向上端箭头 左  #fff" -->
          <g fill="none" fill-rule="evenodd"><path  fill="#FFF" d="M158.62 0L160 35.862l-28.966-12.69z"/><path d="M146.207 26.207C136.552 49.655 77.862 124.897 2 158" stroke="#FFF" stroke-width="4" stroke-linecap="round"/></g></symbol>
        
        <symbol id="icon_pointtopL" viewBox="0 0 160 160"><!-- 指向上端箭头 右 #666" -->
          <g fill="none" fill-rule="evenodd"><path fill="#666" d="M1.38 0L0 35.862l28.966-12.69z"/><path d="M13.793 26.207C23.448 49.655 82.138 124.897 158 158" stroke="#666" stroke-width="4" stroke-linecap="round"/></g></symbol>

        <symbol id="mybuy" viewBox="0 0 24 24"><!-- 已购买 右 #666" -->
          <g fill="none" fill-rule="evenodd"><path d="M11.994 1C14.068 1 15.98 2.548 17 5H7c1-2.451 2.908-4 4.994-4z" stroke="#AAA" stroke-width="2"/><path d="M9.812 17.756l.002.003c.17.16.392.241.615.241a.887.887 0 0 0 .565-.199.94.94 0 0 0 .048-.038.72.72 0 0 1 .038-.03l.01-.006 6.655-6.322a.798.798 0 0 0 .255-.581c0-.22-.09-.426-.255-.582a.906.906 0 0 0-1.233 0l-6.07 5.766L7.48 13.08l-.002-.002a.9.9 0 0 0-1.225 0 .795.795 0 0 0-.001 1.162l3.56 3.515z" fill="#AAA" fill-rule="nonzero"/><path d="M4.631 5a1 1 0 0 0-.995.899l-1.63 16A1 1 0 0 0 3 23h18a1 1 0 0 0 .994-1.101l-1.63-16A1 1 0 0 0 19.368 5H4.63z" stroke="#AAA" stroke-width="2"/></g></symbol>

        <symbol id="icon_eyesvg" viewBox="0 0 24 16"> <!-- 浏览 icon_eyesvg 右 #D4D4D4" -->
          <path d="M23.628 7.533C23.393 7.226 17.813.013 12.008 0 6.221 0 .621 7.175.385 7.48L0 7.982l.384.492C.62 8.78 6.177 16 11.967 16c6.126 0 11.398-7.164 11.634-7.47L24 8.033l-.372-.5zM11.973 13c-1.34 0-2.568-.57-3.513-1.508A4.966 4.966 0 0 1 7 7.955C7.006 5.233 9.256 3 12.015 3c2.775.006 4.99 2.258 4.985 4.985C16.994 10.707 14.575 13 11.973 13zm.047-8C10.356 5 9.003 6.343 9 7.994c-.002.802.31 1.557.878 2.125A2.936 2.936 0 0 0 11.97 11c1.591-.005 3.027-1.345 3.03-2.993A2.988 2.988 0 0 0 12.02 5z" fill-rule="nonzero"/></symbol>

        <symbol id="icon_nextarrow" viewBox="0 0 6 8"><!-- 向右next > #D4D4D4" -->
          <path d="M.19 1.03a.572.572 0 0 1 0-.853.692.692 0 0 1 .924 0l3.694 3.412a.571.571 0 0 1 0 .853.69.69 0 0 1-.923 0L.191 1.03zM.2 7.824a.57.57 0 0 1 0-.852l3.688-3.406a.69.69 0 0 1 .922 0 .571.571 0 0 1 0 .851L1.123 7.824a.69.69 0 0 1-.922 0z" fill-rule="nonzero"/></symbol>

        <symbol id="icon_chddtip" viewBox="0 0 18 16"><!-- 三角叹号 #D4D4D4" -->
          <path d="M7.29 1.626L.423 12.964A2 2 0 0 0 2.135 16h13.73a2 2 0 0 0 1.711-3.036L10.711 1.626a2 2 0 0 0-3.422 0zm2.633 11.453c0 .475-.42.87-.923.87-.503 0-.923-.395-.923-.87 0-.476.42-.872.923-.872.504 0 .923.317.923.872zm0-3.248c0 .475-.42.871-.923.871-.503 0-.923-.396-.923-.87V5.976c0-.475.42-.87.923-.87.504 0 .923.395.923.87v3.854z" fill-rule="nonzero"/></symbol>

        <symbol id="icon_turnbtn" viewBox="0 0 11 8"><!-- turnbtn -->
          <path d="M2.437 3.103c.085.078.249.164.334.328.171-.164.335-.328.42-.491.172-.164.336-.406.592-.57a6.133 6.133 0 0 0-.84-.655c-.421-.327-1.012-.49-1.596-.49H0V2.69h1.347c.334-.078.67.008 1.09.413zm6.297 2.363H7.56c-.25 0-.67-.164-1.09-.49-.086-.08-.25-.165-.335-.328-.17.163-.25.327-.42.405-.171.242-.42.406-.592.655.25.242.592.491.841.655.42.327 1.012.491 1.596.491h1.175V8L11 6.121 8.734 4.242v1.224zm-1.93-2.612c.335-.164.591-.242.755-.242h1.175v1.146L11 1.879 8.734 0v1.224H7.56c-.755 0-1.432.406-2.016.819-.84.655-1.596 1.63-2.351 2.37-.335.327-.755.655-1.012.897-.335.242-.591.327-.755.327H.078V6.94H1.34c.756 0 1.432-.406 2.017-.819.84-.655 1.595-1.63 2.35-2.37.428-.406.763-.648 1.098-.897z"  fill-rule="nonzero"/></symbol>
        
        <symbol id="iconpaywait" viewBox="0 0 40 40"><!-- 等待 灰色 -->
            <defs><path d="M29 22a7 7 0 1 0 0 14 7 7 0 0 0 0-14zm2.38 6.495v.957h-1.435l-.184.331v.295h1.62v.92h-1.62v1.29h-1.436v-1.29h-1.657v-.92h1.657v-.295l-.185-.331h-1.436l-.036-.957h1.178l-1.178-2.725h1.51l.957 2.835.994-2.835h1.473l-1.179 2.725h.958z" id="a"/></defs><g fill-rule="nonzero" fill="none"><path d="M18.503 11.628v6.599h6.047a1.374 1.374 0 0 1 0 2.748h-7.427A1.374 1.374 0 0 1 15.75 19.6v-7.973c0-.759.615-1.374 1.373-1.374.76-.005 1.38.61 1.38 1.374zm5.512 19.935a14.02 14.02 0 0 0 4.507-3.041 14.083 14.083 0 0 0 4.15-10.025c0-1.914-.374-3.77-1.115-5.518a14.02 14.02 0 0 0-3.04-4.507 14.337 14.337 0 0 0-4.507-3.04 14.144 14.144 0 0 0-5.519-1.11c-1.914 0-3.77.374-5.518 1.115a14.02 14.02 0 0 0-4.506 3.041 14.337 14.337 0 0 0-3.041 4.507 14.144 14.144 0 0 0-1.11 5.518c0 1.914.374 3.77 1.116 5.518a14.02 14.02 0 0 0 3.04 4.507 14.337 14.337 0 0 0 4.507 3.04 14.144 14.144 0 0 0 5.518 1.11c1.914 0 3.77-.374 5.518-1.115zM18.503 2C27.613 2 35 9.386 35 18.497 35 27.607 27.614 35 18.503 35 9.393 35 2 27.614 2 18.503 2 9.393 9.386 2 18.503 2z" fill="#8B8B8B"/><g transform="translate(2 2)"><use fill="#8B8B8B" fill-rule="evenodd" xlink:href="#a"/><path stroke="#FFF" stroke-width="2" d="M29 21a8 8 0 1 1 0 16 8 8 0 0 1 0-16zm2.38 7.495v1h-1.498l-.176.503h1.675v1.08h-2.054l-.002.007v.202h.436l-.436.436v.564l-.282-.282-.282.282v-.564l-.436-.436h.436v-.21h-2.093v-1.079h1.882l-.17-.503h-1.712v-1l.036-.002v-.041h1.323l-.568-1.682h-.791l.917-1.397 1.524 3.524.23-.413 1.345-3.111.918 1.397h-.764l-.59 1.682h1.133v.043z"/></g></g></symbol>

        <symbol id="iconfunnel" viewBox="0 0 40 40"><!-- 漏斗 灰色 -->
          <path d="M8.151 39.64c-.67-.036-1.185-.623-1.15-1.31a1.231 1.231 0 0 1 1.15-1.18h1.236v-5.725c0-3.876 3.166-6.417 5.475-8.271.637-.51 1.423-1.142 1.787-1.561l.17-.195-.176-.189c-.378-.402-1.175-.988-1.815-1.46-2.322-1.71-5.502-4.053-5.502-7.796V6.49H8.15c-.67-.036-1.185-.623-1.15-1.31A1.231 1.231 0 0 1 8.152 4H32.85c.67.036 1.185.623 1.15 1.31a1.231 1.231 0 0 1-1.15 1.18h-1.175v5.463c0 3.743-3.18 6.086-5.502 7.797-.64.47-1.437 1.057-1.815 1.459l-.177.189.17.195c.365.419 1.151 1.05 1.785 1.557 2.315 1.858 5.481 4.4 5.481 8.275v5.726h1.233c.67.036 1.185.623 1.15 1.31a1.231 1.231 0 0 1-1.15 1.179H8.15zm3.602-27.687c0 2.469 2.49 4.302 4.491 5.775 1.689 1.247 3.024 2.231 3.024 3.663 0 1.39-1.284 2.42-2.911 3.721-2.026 1.627-4.546 3.649-4.546 6.313v5.726H29.19v-5.726c0-2.664-2.52-4.686-4.545-6.31-1.625-1.305-2.908-2.338-2.908-3.724 0-1.432 1.331-2.416 3.02-3.663 2.002-1.473 4.494-3.306 4.494-5.775V6.49h-17.5v5.464h.003zm4.219 21.678c-.618-.06-1.07-.623-1.012-1.256.052-.55.476-.985 1.012-1.037h9.056c.618.06 1.07.623 1.012 1.256-.052.55-.476.985-1.012 1.037h-9.056z" fill="#8B8B8B" fill-rule="nonzero"/></symbol>
        
        <symbol id="iconsavemin" viewBox="0 0 28 28"><!-- 保存 白色 小 -->
            <path d="M19.95 15.71a1.024 1.024 0 0 1 1.414-.024.945.945 0 0 1 .024 1.367l-6.681 6.463a1.024 1.024 0 0 1-1.414 0l-6.657-6.44a.945.945 0 0 1 .024-1.367 1.024 1.024 0 0 1 1.39 0L13 20.497V.967C13 .433 13.448 0 14 0s1 .433 1 .967v19.53l4.95-4.788zM26 21.23c0-.535.448-.968 1-.968s1 .433 1 .967V28H0v-6.77c0-.535.448-.968 1-.968s1 .433 1 .967v4.837h24v-4.837z" fill-rule="nonzero"/></symbol>

        <symbol id="iconsave" viewBox="0 0 50 42"><!-- 保存 绿色 大图 -->
            <defs><path d="M10.33.504A9.806 9.806 0 0 0 .504 10.33a9.806 9.806 0 0 0 9.826 9.826 9.806 9.806 0 0 0 9.826-9.826A9.806 9.806 0 0 0 10.33.504z" id="a"/></defs><g fill-rule="nonzero" fill="none"><path d="M22.873 24.755a.736.736 0 0 0 .513-.207l10.722-10.14a.252.252 0 1 0-.173-.434l-6.954.02-.025-12.23a.735.735 0 0 0-.222-.527.722.722 0 0 0-.532-.217l-6.772.02a.755.755 0 0 0-.532.221.73.73 0 0 0-.217.528l.024 12.23-6.954.019a.252.252 0 0 0-.231.158.246.246 0 0 0 .064.276l10.776 10.08a.763.763 0 0 0 .513.203z" fill="#4DB04B"/><path d="M43.251 27.97l-6.618-4.591h-4.138l6.944 5.612-7.63-.098c-.222 0-.537.212-.64.39l-2.122 5.124H16.644l-2.12-5.125c-.1-.177-.42-.39-.642-.39H6.307L13.2 23.38H9.064l-6.619 4.592c-1.036.62-1.652 2.046-1.376 3.176l1.228 6.727c.276 1.124 1.51 2.046 2.732 2.046h35.643c1.223 0 2.456-.922 2.732-2.046l1.228-6.727c.276-1.13-.345-2.555-1.38-3.176z" fill="#4DB04B"/><g transform="translate(27.399 20.168)"><use fill="#4DB04B" fill-rule="evenodd" xlink:href="#a"/><path stroke="#FFF" stroke-width="2" d="M10.33-.496A10.806 10.806 0 0 1 21.156 10.33 10.806 10.806 0 0 1 10.33 21.156 10.806 10.806 0 0 1-.496 10.33 10.806 10.806 0 0 1 10.33-.496z"/></g><path d="M42.415 28.684l-5.29 5.24c-.354.353-.857.353-1.21 0l-2.47-2.469a.92.92 0 0 1 0-1.21c.303-.352.857-.352 1.21 0l1.864 1.916 4.636-4.687c.353-.352.857-.352 1.21 0a.834.834 0 0 1 .252.605c.05.202-.05.454-.202.605z" fill="#FFF"/></g></symbol>

        <!-- 我的消息  -->
        <symbol id="icon_toznkf" viewBox="0 0 36 36">
          <g fill-rule="nonzero"><path d="M5.024 30.465l-1.39 2.838a1.616 1.616 0 0 0-.223 1.743c.278.574.853.945 1.483.945h13.11c9.921 0 17.987-8.066 17.987-17.987 0-9.92-8.066-17.987-17.987-17.987C8.084.017.017 8.084.017 18.004a17.97 17.97 0 0 0 5.007 12.461zm2.337 2.893c.686-1.687.797-3.449-.446-4.728a15.361 15.361 0 0 1-4.283-10.626c0-8.474 6.88-15.353 15.354-15.353S33.34 9.53 33.34 18.004c0 8.475-6.88 15.354-15.354 15.354H7.36z"/><path d="M24.71 13.848c0 .725-.587 1.313-1.313 1.313H11.9a1.313 1.313 0 0 1 0-2.627h11.497c.725 0 1.313.588 1.314 1.313zm-5.13 8.159c0 .725-.588 1.313-1.313 1.313H11.9a1.313 1.313 0 1 1 0-2.627h6.367c.725 0 1.313.588 1.314 1.313z"/></g></symbol>

        <!-- 筛选 默认颜色#555555 ，选中颜色#242424-->
        <symbol id="icon_screensvg" viewBox="0 0 20 20">
          <g fill-rule="evenodd"><path d="M16.528 4.315c.614-.817.687-2.054.171-2.952C16.182.459 15.56 0 14.562 0H3.156c-.239 0-.485 0-.7.073a2.493 2.493 0 0 0-1.359.942 2.822 2.822 0 0 0-.552 1.671c0 .773.276 1.46.775 1.934a394.597 394.597 0 0 1 4.702 4.988v5.604a.79.79 0 1 0 1.58 0V9.6c0-.377-.108-.684-.321-.914A953.715 953.715 0 0 0 2.813 3.99a1.655 1.655 0 0 1-.418-1.51 1.115 1.115 0 0 1 1.089-.87h10.352c.553 0 1.046.35 1.23.87.191.535.077 1.133-.3 1.56-1.871 2.126-3.33 3.751-4.374 4.872l-.01.01a1.27 1.27 0 0 0-.377.914v9.369a.795.795 0 0 0 1.591 0V9.964c.859-.918 3.817-4.387 4.61-5.24.114-.12.24-.255.321-.41l.001.001zM14 17.6c-.44-.004-.802.304-.806.686v.214c0 .438.41.701.807.701h4.83c.504 0 .806-.356.806-.7v-.2c0-.417-.325-.7-.807-.7H14zm0-3.2c-.44-.004-.802.313-.806.708v.168c0 .452.41.723.807.723h4.83c.504 0 .806-.368.806-.723v-.152c.005-.396-.348-.72-.789-.725a.89.89 0 0 0-.018 0H14zm0-3.2c-.44-.004-.802.323-.806.732v.119c0 .467.41.748.807.748h4.83c.504 0 .806-.38.806-.748v-.104c0-.447-.325-.748-.807-.748H14z" fill-rule="nonzero"/><text font-family="MicrosoftYaHei, Microsoft YaHei" font-size="24" transform="translate(-80 -6)"><tspan x="24" y="25">筛选</tspan></text></g></symbol>

        <!-- 点赞 stroke="#A6A6A6"-->
        <symbol id="icon_zansvg" viewBox="0 0 24 24">
          <path d="M21.255 15.817c-1.4 3.743-2.574 6.089-3.754 6.74-.536.294-1.242.443-2.393.443-2.798 0-7.333-.85-8.725-1.828a1.874 1.874 0 0 1-.8-1.533v-8.487c0-.578.267-1.121.727-1.48a27.86 27.86 0 0 1 2.262-1.57c.37-.232.732-.445 1.084-.636 1.77-.963 3.212-2.326 3.445-3 .041-.12.072-.216.141-.431.11-.343.166-.508.25-.722C14.054 1.87 14.994 1 16.6 1c1.258 0 2.316.712 2.847 1.891.674 1.497.417 3.615-.655 5.643.408.103.802.214 1.304.369 1.697.525 2.677 1.472 2.87 3.136.18 1.563-.389 2.724-1.711 3.778zM1 11.05C1 9.701 2.11 8.62 3.469 8.62c1.357 0 2.468 1.082 2.468 2.431v8.664c0 1.348-1.11 2.431-2.468 2.431C2.11 22.145 1 21.062 1 19.714V11.05z" fill-rule="nonzero"  stroke-width="2" fill="none"/></symbol>
        <!-- 分享 浏览 fill="#A6A6A6" -->
        <symbol id="icon_sharelook" viewBox="0 0 24 24">
            <path d="M12 21C7.6 21 3.674 18.223.232 12.799a1.489 1.489 0 0 1 0-1.598C3.674 5.777 7.6 3 12 3s8.326 2.777 11.768 8.201c.31.488.31 1.11 0 1.598-3.442 5.424-7.368 8.2-11.768 8.2zm0-16.2C8.357 4.8 4.984 7.158 1.872 12 4.984 16.842 8.357 19.2 12 19.2s7.016-2.358 10.128-7.2C19.016 7.158 15.643 4.8 12 4.8zm0 11.4c-2.34 0-4.237-1.88-4.237-4.2 0-2.32 1.897-4.2 4.237-4.2s4.237 1.88 4.237 4.2c0 2.32-1.897 4.2-4.237 4.2zm0-1.8a2.41 2.41 0 0 0 2.422-2.4A2.41 2.41 0 0 0 12 9.6 2.41 2.41 0 0 0 9.578 12 2.41 2.41 0 0 0 12 14.4z"  fill-rule="nonzero"/>
        </symbol> 




	</defs>
</svg>
